<svg xmlns="http://www.w3.org/2000/svg" viewBox="0 0 24 24" fill="currentColor">
  <path d="M12 2.163c3.204 0 3.584.012 4.85.07 3.252.148 4.771 1.691 4.919 4.919.058 1.265.069 1.645.069 4.849 0 3.205-.012 3.584-.069 4.849-.149 3.225-1.664 4.771-4.919 4.919-1.266.058-1.644.07-4.85.07-3.204 0-3.584-.012-4.849-.07-3.26-.149-4.771-1.699-4.919-4.92-.058-1.265-.07-1.644-.07-4.849 0-3.204.013-3.583.07-4.849.149-3.227 1.664-4.771 4.919-4.919 1.266-.057 1.645-.069 4.849-.069zm0-2.163C8.756 0 8.331.012 7.052.07 2.696.278.278 2.579.07 7.052.012 8.331 0 8.756 0 12s.012 3.669.07 4.948c.208 4.474 2.626 6.875 7.052 7.083 1.28.058 1.704.07 4.948.07 3.245 0 3.669-.012 4.948-.07 4.426-.208 6.844-2.609 7.052-7.083.058-1.28.07-1.704.07-4.948s-.012-3.669-.07-4.948c-.208-4.474-2.626-6.875-7.052-7.083C15.669.012 15.245 0 12 0zm0 5.838a6.162 6.162 0 100 12.324 6.162 6.162 0 000-12.324zM12 16a4 4 0 110-8 4 4 0 010 8zm4.965-10.322a1.44 1.44 0 110-2.881 1.44 1.44 0 010 2.881z" />
</svg>
